<mxfile host="infai.gitlab.io" modified="2025-01-12T14:26:01.661Z" agent="Mozilla/5.0 (X11; Ubuntu; Linux x86_64; rv:133.0) Gecko/20100101 Firefox/133.0" etag="Fxi98opHTSb__SaO2ybb" version="23.1.6" type="device">
  <diagram name="Page-1" id="vZLLGKR_N9Wcjz-cbTaC">
    <mxGraphModel dx="1176" dy="-408" grid="1" gridSize="10" guides="1" tooltips="1" connect="1" arrows="1" fold="1" page="1" pageScale="1" pageWidth="1654" pageHeight="1169" background="none" math="0" shadow="0">
      <root>
        <mxCell id="0" />
        <mxCell id="1" parent="0" />
        <UserObject label=":ben-oda" id="nKvTLelhxwqPHLfkCT0D-1">
          <mxCell style="swimlane;whiteSpace=wrap;collapsible=1;childLayout=stackLayout;swimlaneFillColor=default;resizeParent=1;resizeLast=0;resizeParentMax=0;marginBottom=10;marginTop=10;marginRight=10;marginLeft=10;spacingLeft=5;spacingRight=5;fontStyle=0;startSize=30;points=[];html=1;shadow=1;perimeterSpacing=3;spacingLeft=10;spacingRight=10;allowArrows=1;rotatable=0;whiteSpace=wrap;fontSize=14;horizontal=1;horizontalStack=0;labelBackgroundColor=none;rounded=0;fillColor=#ffcccc;strokeColor=#36393d;" parent="1" vertex="1">
            <mxGeometry x="1047" y="2400" width="370" height="430" as="geometry" />
          </mxCell>
        </UserObject>
        <UserObject label="a rdac:C10004 &lt;span style=&quot;color: transparent;&quot;&gt;#&lt;/span&gt;&lt;font color=&quot;#999999&quot;&gt;person&lt;/font&gt;" id="nKvTLelhxwqPHLfkCT0D-2">
          <mxCell style="points=[];html=1;shadow=1;perimeterSpacing=3;spacingLeft=10;spacingRight=10;allowArrows=1;rotatable=0;whiteSpace=wrap;fontSize=14;labelBackgroundColor=none;rounded=0;" parent="nKvTLelhxwqPHLfkCT0D-1" vertex="1">
            <mxGeometry x="10" y="40" width="350" height="30" as="geometry" />
          </mxCell>
        </UserObject>
        <UserObject label="rdaa:P50119 gn:5392114&lt;br&gt;&lt;span style=&quot;color: transparent;&quot;&gt;#&lt;/span&gt;&lt;font color=&quot;#999999&quot;&gt;has place of birth&lt;/font&gt;" id="fC0PJWUEyaAXKcJz1B1I-5">
          <mxCell style="points=[];html=1;shadow=1;perimeterSpacing=3;spacingLeft=10;spacingRight=10;allowArrows=1;rotatable=0;whiteSpace=wrap;fontSize=14;labelBackgroundColor=none;rounded=0;" parent="nKvTLelhxwqPHLfkCT0D-1" vertex="1">
            <mxGeometry x="10" y="70" width="350" height="40" as="geometry" />
          </mxCell>
        </UserObject>
        <UserObject label="rdaa:P50118 gn:5097672&lt;br&gt;&lt;span style=&quot;color: transparent;&quot;&gt;#&lt;/span&gt;&lt;font color=&quot;#999999&quot;&gt;has place of death&lt;/font&gt;" id="fC0PJWUEyaAXKcJz1B1I-3">
          <mxCell style="points=[];html=1;shadow=1;perimeterSpacing=3;spacingLeft=10;spacingRight=10;allowArrows=1;rotatable=0;whiteSpace=wrap;fontSize=14;labelBackgroundColor=none;rounded=0;" parent="nKvTLelhxwqPHLfkCT0D-1" vertex="1">
            <mxGeometry x="10" y="110" width="350" height="40" as="geometry" />
          </mxCell>
        </UserObject>
        <UserObject label="rdaa:P50121 &quot;1915-12-21T00:00:00&quot;^^xsd:dateTime&lt;br&gt;&lt;span style=&quot;color: transparent;&quot;&gt;#&lt;/span&gt;&lt;font color=&quot;#999999&quot;&gt;has date of birth&lt;/font&gt;" id="fC0PJWUEyaAXKcJz1B1I-10">
          <mxCell style="points=[];html=1;shadow=1;perimeterSpacing=3;spacingLeft=10;spacingRight=10;allowArrows=1;rotatable=0;whiteSpace=wrap;fontSize=14;labelBackgroundColor=none;rounded=0;" parent="nKvTLelhxwqPHLfkCT0D-1" vertex="1">
            <mxGeometry x="10" y="150" width="350" height="40" as="geometry" />
          </mxCell>
        </UserObject>
        <UserObject label="rdaa:P50120 &quot;1984-11-28T00:00:00&quot;^^xsd:dateTime&lt;br&gt;&lt;span style=&quot;color: transparent;&quot;&gt;#&lt;/span&gt;&lt;font color=&quot;#999999&quot;&gt;has date of death&lt;/font&gt;" id="fC0PJWUEyaAXKcJz1B1I-11">
          <mxCell style="points=[];html=1;shadow=1;perimeterSpacing=3;spacingLeft=10;spacingRight=10;allowArrows=1;rotatable=0;whiteSpace=wrap;fontSize=14;labelBackgroundColor=none;rounded=0;" parent="nKvTLelhxwqPHLfkCT0D-1" vertex="1">
            <mxGeometry x="10" y="190" width="350" height="40" as="geometry" />
          </mxCell>
        </UserObject>
        <UserObject label="rdaa:P50117 &quot;Ben Oda&quot;&lt;br&gt;&lt;span style=&quot;color: transparent;&quot;&gt;#&lt;/span&gt;&lt;font color=&quot;#999999&quot;&gt;has preferred name&lt;/font&gt;" id="fC0PJWUEyaAXKcJz1B1I-6">
          <mxCell style="points=[];html=1;shadow=1;perimeterSpacing=3;spacingLeft=10;spacingRight=10;allowArrows=1;rotatable=0;whiteSpace=wrap;fontSize=14;labelBackgroundColor=none;rounded=0;" parent="nKvTLelhxwqPHLfkCT0D-1" vertex="1">
            <mxGeometry x="10" y="230" width="350" height="40" as="geometry" />
          </mxCell>
        </UserObject>
        <UserObject label="rdaa:P50115 &quot;Ben Kazuhito Oda&quot;&lt;br&gt;&lt;span style=&quot;color: transparent;&quot;&gt;#&lt;/span&gt;&lt;font color=&quot;#999999&quot;&gt;has fuller form of name&lt;/font&gt;" id="fC0PJWUEyaAXKcJz1B1I-7">
          <mxCell style="points=[];html=1;shadow=1;perimeterSpacing=3;spacingLeft=10;spacingRight=10;allowArrows=1;rotatable=0;whiteSpace=wrap;fontSize=14;labelBackgroundColor=none;rounded=0;" parent="nKvTLelhxwqPHLfkCT0D-1" vertex="1">
            <mxGeometry x="10" y="270" width="350" height="40" as="geometry" />
          </mxCell>
        </UserObject>
        <UserObject label="rdaa:P50292 &quot;Ben&quot;&lt;br&gt;&lt;span style=&quot;color: transparent;&quot;&gt;#&lt;/span&gt;&lt;font color=&quot;#999999&quot;&gt;has given name&lt;/font&gt;" id="fC0PJWUEyaAXKcJz1B1I-8">
          <mxCell style="points=[];html=1;shadow=1;perimeterSpacing=3;spacingLeft=10;spacingRight=10;allowArrows=1;rotatable=0;whiteSpace=wrap;fontSize=14;labelBackgroundColor=none;rounded=0;" parent="nKvTLelhxwqPHLfkCT0D-1" vertex="1">
            <mxGeometry x="10" y="310" width="350" height="40" as="geometry" />
          </mxCell>
        </UserObject>
        <UserObject label="rdaa:P50291 &quot;Oda&quot;&lt;br&gt;&lt;span style=&quot;color: transparent;&quot;&gt;#&lt;/span&gt;&lt;font color=&quot;#999999&quot;&gt;has surname&lt;/font&gt;" id="fC0PJWUEyaAXKcJz1B1I-9">
          <mxCell style="points=[];html=1;shadow=1;perimeterSpacing=3;spacingLeft=10;spacingRight=10;allowArrows=1;rotatable=0;whiteSpace=wrap;fontSize=14;labelBackgroundColor=none;rounded=0;" parent="nKvTLelhxwqPHLfkCT0D-1" vertex="1">
            <mxGeometry x="10" y="350" width="350" height="40" as="geometry" />
          </mxCell>
        </UserObject>
        <UserObject label="rdfs:label &quot;Ben Oda&quot;" id="ogyGV-CLIjV5AEfVGZi5-8">
          <mxCell style="points=[];html=1;shadow=1;perimeterSpacing=3;spacingLeft=10;spacingRight=10;allowArrows=1;rotatable=0;whiteSpace=wrap;fontSize=14;labelBackgroundColor=none;rounded=0;" parent="nKvTLelhxwqPHLfkCT0D-1" vertex="1">
            <mxGeometry x="10" y="390" width="350" height="30" as="geometry" />
          </mxCell>
        </UserObject>
        <UserObject label="@base &amp;lt;https://f3mf.github.io/gdo/test-rda#&amp;gt; .&lt;br&gt;@prefix : &amp;lt;https://f3mf.github.io/gdo/test-rda#&amp;gt; .&lt;br&gt;&lt;br&gt;@prefix dc: &amp;lt;http://purl.org/dc/elements/1.1/&amp;gt; .&lt;br&gt;@prefix rdfs: &amp;lt;http://www.w3.org/2000/01/rdf-schema#&amp;gt; .&lt;br&gt;@prefix xsd: &amp;lt;http://www.w3.org/2001/XMLSchema#&amp;gt; .&lt;br&gt;&lt;br&gt;@prefix rdaa: &amp;lt;http://rdaregistry.info/Elements/a/&amp;gt; .&lt;br&gt;@prefix rdac: &amp;lt;http://rdaregistry.info/Elements/c/&amp;gt; .&lt;br&gt;@prefix rdae: &amp;lt;http://rdaregistry.info/Elements/e/&amp;gt; .&lt;br&gt;@prefix rdai: &amp;lt;http://rdaregistry.info/Elements/i/&amp;gt; .&lt;br&gt;@prefix rdam: &amp;lt;http://rdaregistry.info/Elements/m/&amp;gt; .&lt;br&gt;@prefix rdan: &amp;lt;http://rdaregistry.info/Elements/n/&amp;gt; .&lt;br&gt;@prefix rdaw: &amp;lt;http://rdaregistry.info/Elements/w/&amp;gt; .&lt;br&gt;&lt;br&gt;@prefix rdacc: &amp;lt;http://rdaregistry.info/termList/RDAColourContent/&amp;gt; .&lt;br&gt;@prefix rdaco: &amp;lt;http://rdaregistry.info/termList/RDAContentType/&amp;gt; .&lt;br&gt;@prefix rdaep: &amp;lt;http://rdaregistry.info/termList/RDAExtensionPlan/&amp;gt; .&lt;br&gt;@prefix rdafr: &amp;lt;http://rdaregistry.info/termList/frequency/&amp;gt; .&lt;br&gt;@prefix rdatb: &amp;lt;http://rdaregistry.info/termList/RDATypeOfBinding/&amp;gt; .&lt;br&gt;@prefix rdamat: &amp;lt;http://rdaregistry.info/termList/RDAMaterial/&amp;gt; .&lt;br&gt;&lt;br&gt;@prefix lcsh: &amp;lt;http://id.loc.gov/authorities/subjects&amp;gt; .&lt;br&gt;@prefix lcgft: &amp;lt;http://id.loc.gov/authorities/genreForms/&amp;gt; .&lt;br&gt;@prefix gn: &amp;lt;https://sws.geonames.org/&amp;gt; ." id="nKvTLelhxwqPHLfkCT0D-3">
          <mxCell style="points=[];html=1;shadow=1;perimeterSpacing=3;spacingLeft=10;spacingRight=10;allowArrows=0;rotatable=0;whiteSpace=wrap;fontSize=14;labelBackgroundColor=none;rounded=0;align=center;" parent="1" vertex="1">
            <mxGeometry x="1120" y="1210" width="500" height="490" as="geometry" />
          </mxCell>
        </UserObject>
        <UserObject label=":young-romance-26-cover-w" id="bgf9_nDrxLFxw-tNaPST-231">
          <mxCell style="swimlane;whiteSpace=wrap;collapsible=1;childLayout=stackLayout;swimlaneFillColor=default;resizeParent=1;resizeLast=0;resizeParentMax=0;marginBottom=10;marginTop=10;marginRight=10;marginLeft=10;spacingLeft=5;spacingRight=5;fontStyle=0;startSize=30;points=[];html=1;shadow=1;perimeterSpacing=3;spacingLeft=10;spacingRight=10;allowArrows=1;rotatable=0;whiteSpace=wrap;fontSize=14;horizontal=1;horizontalStack=0;rounded=0;labelBackgroundColor=none;fillColor=#ffcc99;strokeColor=#36393d;" parent="1" vertex="1">
            <mxGeometry x="1007" y="1810" width="450" height="190" as="geometry" />
          </mxCell>
        </UserObject>
        <UserObject label="a rdac:C10001 &lt;span style=&quot;color: transparent;&quot;&gt;#&lt;/span&gt;&lt;font color=&quot;#999999&quot;&gt;work&lt;br&gt;&lt;/font&gt;" id="fC0PJWUEyaAXKcJz1B1I-84">
          <mxCell style="points=[];html=1;shadow=1;perimeterSpacing=3;spacingLeft=10;spacingRight=10;allowArrows=1;rotatable=0;whiteSpace=wrap;fontSize=14;rounded=0;labelBackgroundColor=none;" parent="bgf9_nDrxLFxw-tNaPST-231" vertex="1">
            <mxGeometry x="10" y="40" width="430" height="30" as="geometry" />
          </mxCell>
        </UserObject>
        <UserObject label="rdaw:P10088 &quot;We&#39;ve got to keep our love a secret, Marge...&quot;@en&lt;br&gt;&lt;span style=&quot;color: transparent;&quot;&gt;#&lt;/span&gt;&lt;font color=&quot;#999999&quot;&gt;has title&lt;/font&gt;" id="fC0PJWUEyaAXKcJz1B1I-90">
          <mxCell style="points=[];html=1;shadow=1;perimeterSpacing=3;spacingLeft=10;spacingRight=10;allowArrows=1;rotatable=0;whiteSpace=wrap;fontSize=14;rounded=0;labelBackgroundColor=none;" parent="bgf9_nDrxLFxw-tNaPST-231" vertex="1">
            <mxGeometry x="10" y="70" width="430" height="40" as="geometry" />
          </mxCell>
        </UserObject>
        <UserObject label="rdaw:P10256 lcsh:sh92001504&lt;br&gt;&lt;span style=&quot;color: transparent;&quot;&gt;#&lt;/span&gt;&lt;font color=&quot;#999999&quot;&gt;has subject man-woman relationships&lt;/font&gt;" id="bgf9_nDrxLFxw-tNaPST-295">
          <mxCell style="points=[];html=1;shadow=1;perimeterSpacing=3;spacingLeft=10;spacingRight=10;allowArrows=1;rotatable=0;whiteSpace=wrap;fontSize=14;rounded=0;labelBackgroundColor=none;" parent="bgf9_nDrxLFxw-tNaPST-231" vertex="1">
            <mxGeometry x="10" y="110" width="430" height="40" as="geometry" />
          </mxCell>
        </UserObject>
        <UserObject label="rdfs:label &quot;We&#39;ve got to keep our love a secret, Marge...&quot;@en" id="bgf9_nDrxLFxw-tNaPST-292">
          <mxCell style="points=[];html=1;shadow=1;perimeterSpacing=3;spacingLeft=10;spacingRight=10;allowArrows=1;rotatable=0;whiteSpace=wrap;fontSize=14;rounded=0;labelBackgroundColor=none;" parent="bgf9_nDrxLFxw-tNaPST-231" vertex="1">
            <mxGeometry x="10" y="150" width="430" height="30" as="geometry" />
          </mxCell>
        </UserObject>
        <UserObject label=":feature-publications" id="bgf9_nDrxLFxw-tNaPST-239">
          <mxCell style="swimlane;whiteSpace=wrap;collapsible=1;childLayout=stackLayout;swimlaneFillColor=default;resizeParent=1;resizeLast=0;resizeParentMax=0;marginBottom=10;marginTop=10;marginRight=10;marginLeft=10;spacingLeft=5;spacingRight=5;fontStyle=0;startSize=30;points=[];html=1;shadow=1;perimeterSpacing=3;spacingLeft=10;spacingRight=10;allowArrows=1;rotatable=0;whiteSpace=wrap;fontSize=14;horizontal=1;horizontalStack=0;labelBackgroundColor=none;fillColor=#ffcccc;strokeColor=#36393d;" parent="1" vertex="1">
            <mxGeometry x="660" y="2560" width="310" height="260" as="geometry" />
          </mxCell>
        </UserObject>
        <UserObject label="a rdac:C10005 &lt;span style=&quot;color: transparent;&quot;&gt;#&lt;/span&gt;&lt;font color=&quot;#999999&quot;&gt;corporate body&lt;/font&gt;" id="bgf9_nDrxLFxw-tNaPST-240">
          <mxCell style="points=[];html=1;shadow=1;perimeterSpacing=3;spacingLeft=10;spacingRight=10;allowArrows=1;rotatable=0;whiteSpace=wrap;fontSize=14;labelBackgroundColor=none;" parent="bgf9_nDrxLFxw-tNaPST-239" vertex="1">
            <mxGeometry x="10" y="40" width="290" height="30" as="geometry" />
          </mxCell>
        </UserObject>
        <UserObject label="rdaa:P50041 &quot;Feature Publications&quot;@en&lt;br&gt;&lt;span style=&quot;color: transparent;&quot;&gt;#&lt;/span&gt;&lt;font color=&quot;#999999&quot;&gt;has preferred name&lt;/font&gt;" id="fC0PJWUEyaAXKcJz1B1I-13">
          <mxCell style="points=[];html=1;shadow=1;perimeterSpacing=3;spacingLeft=10;spacingRight=10;allowArrows=1;rotatable=0;whiteSpace=wrap;fontSize=14;labelBackgroundColor=none;" parent="bgf9_nDrxLFxw-tNaPST-239" vertex="1">
            <mxGeometry x="10" y="70" width="290" height="40" as="geometry" />
          </mxCell>
        </UserObject>
        <UserObject label="rdaa:P50025 &lt;span style=&quot;color: transparent;&quot;&gt;#&lt;/span&gt;&lt;font color=&quot;#999999&quot;&gt;has variant name&lt;/font&gt;" id="fC0PJWUEyaAXKcJz1B1I-45">
          <mxCell style="swimlane;whiteSpace=wrap;collapsible=1;childLayout=stackLayout;swimlaneFillColor=default;resizeParent=1;resizeLast=0;resizeParentMax=0;marginBottom=10;marginTop=10;marginRight=10;marginLeft=10;spacingLeft=5;spacingRight=5;fontStyle=0;startSize=30;points=[];html=1;shadow=1;perimeterSpacing=3;spacingLeft=10;spacingRight=10;allowArrows=1;rotatable=0;whiteSpace=wrap;fontSize=14;horizontal=1;horizontalStack=0;" parent="bgf9_nDrxLFxw-tNaPST-239" vertex="1">
            <mxGeometry x="10" y="110" width="290" height="110" as="geometry" />
          </mxCell>
        </UserObject>
        <UserObject label="&quot;A Prize Publication&quot;@en" id="fC0PJWUEyaAXKcJz1B1I-46">
          <mxCell style="points=[];html=1;shadow=1;perimeterSpacing=3;spacingLeft=10;spacingRight=10;allowArrows=1;rotatable=0;whiteSpace=wrap;fontSize=14;" parent="fC0PJWUEyaAXKcJz1B1I-45" vertex="1">
            <mxGeometry x="10" y="40" width="270" height="30" as="geometry" />
          </mxCell>
        </UserObject>
        <UserObject label="&quot;Prize Group&quot;@en" id="fC0PJWUEyaAXKcJz1B1I-47">
          <mxCell style="points=[];html=1;shadow=1;perimeterSpacing=3;spacingLeft=10;spacingRight=10;allowArrows=1;rotatable=0;whiteSpace=wrap;fontSize=14;" parent="fC0PJWUEyaAXKcJz1B1I-45" vertex="1">
            <mxGeometry x="10" y="70" width="270" height="30" as="geometry" />
          </mxCell>
        </UserObject>
        <UserObject label="rdfs:label &quot;Feature Publications&quot;@en" id="bgf9_nDrxLFxw-tNaPST-241">
          <mxCell style="points=[];html=1;shadow=1;perimeterSpacing=3;spacingLeft=10;spacingRight=10;allowArrows=1;rotatable=0;whiteSpace=wrap;fontSize=14;labelBackgroundColor=none;" parent="bgf9_nDrxLFxw-tNaPST-239" vertex="1">
            <mxGeometry x="10" y="220" width="290" height="30" as="geometry" />
          </mxCell>
        </UserObject>
        <UserObject label=":young-romance-26-w" id="bgf9_nDrxLFxw-tNaPST-268">
          <mxCell style="swimlane;whiteSpace=wrap;collapsible=1;childLayout=stackLayout;swimlaneFillColor=default;resizeParent=1;resizeLast=0;resizeParentMax=0;marginBottom=10;marginTop=10;marginRight=10;marginLeft=10;spacingLeft=5;spacingRight=5;fontStyle=0;startSize=30;points=[];html=1;shadow=1;perimeterSpacing=3;spacingLeft=10;spacingRight=10;allowArrows=1;rotatable=0;whiteSpace=wrap;fontSize=14;horizontal=1;horizontalStack=0;labelBackgroundColor=none;fillColor=#ffcc99;strokeColor=#36393d;" parent="1" vertex="1">
            <mxGeometry x="265" y="1850" width="270" height="110" as="geometry" />
          </mxCell>
        </UserObject>
        <UserObject label="a rdac:C10001 &lt;span style=&quot;color: transparent;&quot;&gt;#&lt;/span&gt;&lt;font color=&quot;#999999&quot;&gt;work&lt;br&gt;&lt;/font&gt;" id="fC0PJWUEyaAXKcJz1B1I-85">
          <mxCell style="points=[];html=1;shadow=1;perimeterSpacing=3;spacingLeft=10;spacingRight=10;allowArrows=1;rotatable=0;whiteSpace=wrap;fontSize=14;rounded=0;labelBackgroundColor=none;" parent="bgf9_nDrxLFxw-tNaPST-268" vertex="1">
            <mxGeometry x="10" y="40" width="250" height="30" as="geometry" />
          </mxCell>
        </UserObject>
        <UserObject label="rdfs:label &quot;Young Romance 26&quot;@en" id="bgf9_nDrxLFxw-tNaPST-448">
          <mxCell style="points=[];html=1;shadow=1;perimeterSpacing=3;spacingLeft=10;spacingRight=10;allowArrows=1;rotatable=0;whiteSpace=wrap;fontSize=14;labelBackgroundColor=none;" parent="bgf9_nDrxLFxw-tNaPST-268" vertex="1">
            <mxGeometry x="10" y="70" width="250" height="30" as="geometry" />
          </mxCell>
        </UserObject>
        <UserObject label=":young-romance-prize-sw" id="bgf9_nDrxLFxw-tNaPST-271">
          <mxCell style="swimlane;whiteSpace=wrap;collapsible=1;childLayout=stackLayout;swimlaneFillColor=default;resizeParent=1;resizeLast=0;resizeParentMax=0;marginBottom=10;marginTop=10;marginRight=10;marginLeft=10;spacingLeft=5;spacingRight=5;fontStyle=0;startSize=30;points=[];html=1;shadow=1;perimeterSpacing=3;spacingLeft=10;spacingRight=10;allowArrows=1;rotatable=0;whiteSpace=wrap;fontSize=14;horizontal=1;horizontalStack=0;labelBackgroundColor=none;fillColor=#ffcc99;strokeColor=#36393d;" parent="1" vertex="1">
            <mxGeometry x="210" y="1360" width="380" height="380" as="geometry" />
          </mxCell>
        </UserObject>
        <UserObject label="a rdac:C10001 &lt;span style=&quot;color: transparent;&quot;&gt;#&lt;/span&gt;&lt;font color=&quot;#999999&quot;&gt;work&lt;br&gt;&lt;/font&gt;" id="fC0PJWUEyaAXKcJz1B1I-89">
          <mxCell style="points=[];html=1;shadow=1;perimeterSpacing=3;spacingLeft=10;spacingRight=10;allowArrows=1;rotatable=0;whiteSpace=wrap;fontSize=14;rounded=0;labelBackgroundColor=none;" parent="bgf9_nDrxLFxw-tNaPST-271" vertex="1">
            <mxGeometry x="10" y="40" width="360" height="30" as="geometry" />
          </mxCell>
        </UserObject>
        <UserObject label="rdaw:P10088 &quot;Young Romance&quot;@en&lt;br&gt;&lt;span style=&quot;color: transparent;&quot;&gt;#&lt;/span&gt;&lt;font color=&quot;#999999&quot;&gt;has title&lt;/font&gt;" id="fC0PJWUEyaAXKcJz1B1I-119">
          <mxCell style="points=[];html=1;shadow=1;perimeterSpacing=3;spacingLeft=10;spacingRight=10;allowArrows=1;rotatable=0;whiteSpace=wrap;fontSize=14;labelBackgroundColor=none;" parent="bgf9_nDrxLFxw-tNaPST-271" vertex="1">
            <mxGeometry x="10" y="70" width="360" height="40" as="geometry" />
          </mxCell>
        </UserObject>
        <UserObject label="rdaw:P10004 lcgft:gf2014026515&lt;br&gt;&lt;span style=&quot;color: transparent;&quot;&gt;#&lt;/span&gt;&lt;font color=&quot;#999999&quot;&gt;has category romance comics&lt;/font&gt;" id="fC0PJWUEyaAXKcJz1B1I-113">
          <mxCell style="points=[];html=1;shadow=1;perimeterSpacing=3;spacingLeft=10;spacingRight=10;allowArrows=1;rotatable=0;whiteSpace=wrap;fontSize=14;labelBackgroundColor=none;" parent="bgf9_nDrxLFxw-tNaPST-271" vertex="1">
            <mxGeometry x="10" y="110" width="360" height="40" as="geometry" />
          </mxCell>
        </UserObject>
        <UserObject label="rdaw:P10365 rdaep:1003&lt;br&gt;&lt;span style=&quot;color: transparent;&quot;&gt;#&lt;/span&gt;&lt;font color=&quot;#999999&quot;&gt;has extension plan integrating indeterminate&lt;/font&gt;" id="fC0PJWUEyaAXKcJz1B1I-101">
          <mxCell style="points=[];html=1;shadow=1;perimeterSpacing=3;spacingLeft=10;spacingRight=10;allowArrows=1;rotatable=0;whiteSpace=wrap;fontSize=14;labelBackgroundColor=none;" parent="bgf9_nDrxLFxw-tNaPST-271" vertex="1">
            <mxGeometry x="10" y="150" width="360" height="40" as="geometry" />
          </mxCell>
        </UserObject>
        <UserObject label="rdaw:P10368 &lt;span style=&quot;color: transparent;&quot;&gt;#&lt;/span&gt;&lt;font color=&quot;#999999&quot;&gt;has frequency&lt;/font&gt;" id="fC0PJWUEyaAXKcJz1B1I-116">
          <mxCell style="swimlane;whiteSpace=wrap;collapsible=1;childLayout=stackLayout;swimlaneFillColor=default;resizeParent=1;resizeLast=0;resizeParentMax=0;marginBottom=10;marginTop=10;marginRight=10;marginLeft=10;spacingLeft=5;spacingRight=5;fontStyle=0;startSize=30;points=[];html=1;shadow=1;perimeterSpacing=3;spacingLeft=10;spacingRight=10;allowArrows=1;rotatable=0;whiteSpace=wrap;fontSize=14;horizontal=1;horizontalStack=0;labelBackgroundColor=none;" parent="bgf9_nDrxLFxw-tNaPST-271" vertex="1">
            <mxGeometry x="10" y="190" width="360" height="110" as="geometry">
              <mxRectangle x="10" y="70" width="270" height="30" as="alternateBounds" />
            </mxGeometry>
          </mxCell>
        </UserObject>
        <UserObject label="rdafr:1008 &lt;span style=&quot;color: transparent;&quot;&gt;#&lt;/span&gt;&lt;font color=&quot;#999999&quot;&gt;monthly&lt;br&gt;&lt;/font&gt;" id="fC0PJWUEyaAXKcJz1B1I-118">
          <mxCell style="points=[];html=1;shadow=1;perimeterSpacing=3;spacingLeft=10;spacingRight=10;allowArrows=1;rotatable=0;whiteSpace=wrap;fontSize=14;labelBackgroundColor=none;" parent="fC0PJWUEyaAXKcJz1B1I-116" vertex="1">
            <mxGeometry x="10" y="40" width="340" height="30" as="geometry" />
          </mxCell>
        </UserObject>
        <UserObject label="rdafr:1007 &lt;span style=&quot;color: transparent;&quot;&gt;#&lt;/span&gt;&lt;font color=&quot;#999999&quot;&gt;bimonthly&lt;br&gt;&lt;/font&gt;" id="fC0PJWUEyaAXKcJz1B1I-117">
          <mxCell style="points=[];html=1;shadow=1;perimeterSpacing=3;spacingLeft=10;spacingRight=10;allowArrows=1;rotatable=0;whiteSpace=wrap;fontSize=14;labelBackgroundColor=none;" parent="fC0PJWUEyaAXKcJz1B1I-116" vertex="1">
            <mxGeometry x="10" y="70" width="340" height="30" as="geometry" />
          </mxCell>
        </UserObject>
        <UserObject label="rdaw:P10218 gn:6252001&lt;br&gt;&lt;span style=&quot;color: transparent;&quot;&gt;#&lt;/span&gt;&lt;font color=&quot;#999999&quot;&gt;has place of origin&lt;/font&gt;" id="fC0PJWUEyaAXKcJz1B1I-115">
          <mxCell style="points=[];html=1;shadow=1;perimeterSpacing=3;spacingLeft=10;spacingRight=10;allowArrows=1;rotatable=0;whiteSpace=wrap;fontSize=14;labelBackgroundColor=none;" parent="bgf9_nDrxLFxw-tNaPST-271" vertex="1">
            <mxGeometry x="10" y="300" width="360" height="40" as="geometry" />
          </mxCell>
        </UserObject>
        <UserObject label="rdfs:label &quot;Young Romance (Prize, 1947 Series)&quot;@en" id="fC0PJWUEyaAXKcJz1B1I-102">
          <mxCell style="points=[];html=1;shadow=1;perimeterSpacing=3;spacingLeft=10;spacingRight=10;allowArrows=1;rotatable=0;whiteSpace=wrap;fontSize=14;rounded=0;labelBackgroundColor=none;" parent="bgf9_nDrxLFxw-tNaPST-271" vertex="1">
            <mxGeometry x="10" y="340" width="360" height="30" as="geometry" />
          </mxCell>
        </UserObject>
        <UserObject label=":young-romance-26-cover-e" id="bgf9_nDrxLFxw-tNaPST-289">
          <mxCell style="swimlane;whiteSpace=wrap;collapsible=1;childLayout=stackLayout;swimlaneFillColor=default;resizeParent=1;resizeLast=0;resizeParentMax=0;marginBottom=10;marginTop=10;marginRight=10;marginLeft=10;spacingLeft=5;spacingRight=5;fontStyle=0;startSize=30;points=[];html=1;shadow=1;perimeterSpacing=3;spacingLeft=10;spacingRight=10;allowArrows=1;rotatable=0;whiteSpace=wrap;fontSize=14;horizontal=1;horizontalStack=0;rounded=0;labelBackgroundColor=none;fillColor=#FFE599;strokeColor=#36393d;" parent="1" vertex="1">
            <mxGeometry x="1032" y="2125" width="400" height="150" as="geometry" />
          </mxCell>
        </UserObject>
        <UserObject label="a rdac:C10006 &lt;span style=&quot;color: transparent;&quot;&gt;#&lt;/span&gt;&lt;font color=&quot;#999999&quot;&gt;expression&lt;br&gt;&lt;/font&gt;" id="bgf9_nDrxLFxw-tNaPST-290">
          <mxCell style="points=[];html=1;shadow=1;perimeterSpacing=3;spacingLeft=10;spacingRight=10;allowArrows=1;rotatable=0;whiteSpace=wrap;fontSize=14;rounded=0;labelBackgroundColor=none;" parent="bgf9_nDrxLFxw-tNaPST-289" vertex="1">
            <mxGeometry x="10" y="40" width="380" height="30" as="geometry" />
          </mxCell>
        </UserObject>
        <UserObject label="rdae:P20006 &quot;en-US&quot;^^xsd:language&lt;br&gt;&lt;span style=&quot;color: transparent;&quot;&gt;#&lt;/span&gt;&lt;font color=&quot;#999999&quot;&gt;has language&lt;/font&gt;" id="fC0PJWUEyaAXKcJz1B1I-93">
          <mxCell style="points=[];html=1;shadow=1;perimeterSpacing=3;spacingLeft=10;spacingRight=10;allowArrows=1;rotatable=0;whiteSpace=wrap;fontSize=14;rounded=0;labelBackgroundColor=none;" parent="bgf9_nDrxLFxw-tNaPST-289" vertex="1">
            <mxGeometry x="10" y="70" width="380" height="40" as="geometry" />
          </mxCell>
        </UserObject>
        <UserObject label="rdfs:label &quot;Cover of Young Romance 26&quot;@en" id="bgf9_nDrxLFxw-tNaPST-293">
          <mxCell style="points=[];html=1;shadow=1;perimeterSpacing=3;spacingLeft=10;spacingRight=10;allowArrows=1;rotatable=0;whiteSpace=wrap;fontSize=14;rounded=0;labelBackgroundColor=none;" parent="bgf9_nDrxLFxw-tNaPST-289" vertex="1">
            <mxGeometry x="10" y="110" width="380" height="30" as="geometry" />
          </mxCell>
        </UserObject>
        <UserObject label="rdae:P20319&lt;br&gt;&lt;span style=&quot;color: transparent;&quot;&gt;#&lt;/span&gt;&lt;font color=&quot;#999999&quot;&gt;aggregates&lt;br&gt;&lt;/font&gt;" id="bgf9_nDrxLFxw-tNaPST-296">
          <mxCell style="html=1;edgeStyle=elbowEdgeStyle;rounded=0;orthogonalLoop=1;jettySize=auto;endArrow=block;endFill=1;endSize=5;spacingBottom=20;shadow=1;fontSize=14;labelBackgroundColor=default;fontColor=default;" parent="1" source="fC0PJWUEyaAXKcJz1B1I-91" target="bgf9_nDrxLFxw-tNaPST-289" edge="1">
            <mxGeometry relative="1" as="geometry">
              <mxPoint x="1033" y="1840" as="sourcePoint" />
              <mxPoint x="914" y="2350" as="targetPoint" />
            </mxGeometry>
          </mxCell>
        </UserObject>
        <UserObject label="rdae:P20059&lt;br&gt;&lt;span style=&quot;color: transparent;&quot;&gt;#&lt;/span&gt;&lt;font color=&quot;#999999&quot;&gt;has manifestation&lt;br&gt;&lt;/font&gt;" id="bgf9_nDrxLFxw-tNaPST-299">
          <mxCell style="html=1;edgeStyle=elbowEdgeStyle;rounded=0;orthogonalLoop=1;jettySize=auto;endArrow=block;endFill=1;endSize=5;spacingBottom=20;shadow=1;fontSize=14;labelBackgroundColor=default;fontColor=default;" parent="1" source="fC0PJWUEyaAXKcJz1B1I-91" target="bgf9_nDrxLFxw-tNaPST-297" edge="1">
            <mxGeometry relative="1" as="geometry">
              <mxPoint x="674.8235294117649" y="1923.0000000000005" as="sourcePoint" />
              <mxPoint x="224" y="2180" as="targetPoint" />
            </mxGeometry>
          </mxCell>
        </UserObject>
        <UserObject label="rdaw:P10078&lt;br&gt;&lt;span style=&quot;color: transparent;&quot;&gt;#&lt;/span&gt;&lt;font color=&quot;#999999&quot;&gt;has expression&lt;/font&gt;" id="bgf9_nDrxLFxw-tNaPST-398">
          <mxCell style="html=1;edgeStyle=elbowEdgeStyle;rounded=0;orthogonalLoop=1;jettySize=auto;endArrow=block;endFill=1;endSize=5;spacingBottom=20;shadow=1;fontSize=14;labelBackgroundColor=default;fontColor=default;" parent="1" source="bgf9_nDrxLFxw-tNaPST-268" target="fC0PJWUEyaAXKcJz1B1I-91" edge="1">
            <mxGeometry relative="1" as="geometry">
              <mxPoint x="710" y="1760" as="sourcePoint" />
              <mxPoint x="674.8235294117649" y="1757" as="targetPoint" />
            </mxGeometry>
          </mxCell>
        </UserObject>
        <UserObject label="rdaw:P10078&lt;br&gt;&lt;span style=&quot;color: transparent;&quot;&gt;#&lt;/span&gt;&lt;font color=&quot;#999999&quot;&gt;has expression&lt;/font&gt;" id="bgf9_nDrxLFxw-tNaPST-399">
          <mxCell style="html=1;edgeStyle=elbowEdgeStyle;rounded=0;orthogonalLoop=1;jettySize=auto;endArrow=block;endFill=1;endSize=5;spacingBottom=20;shadow=1;fontSize=14;labelBackgroundColor=default;fontColor=default;elbow=vertical;" parent="1" source="bgf9_nDrxLFxw-tNaPST-231" target="bgf9_nDrxLFxw-tNaPST-289" edge="1">
            <mxGeometry relative="1" as="geometry">
              <mxPoint x="1470.29" y="1710" as="sourcePoint" />
              <mxPoint x="1247" y="2160" as="targetPoint" />
              <Array as="points" />
            </mxGeometry>
          </mxCell>
        </UserObject>
        <UserObject label=":young-romance-dc-sw" id="bgf9_nDrxLFxw-tNaPST-402">
          <mxCell style="swimlane;whiteSpace=wrap;collapsible=1;childLayout=stackLayout;swimlaneFillColor=default;resizeParent=1;resizeLast=0;resizeParentMax=0;marginBottom=10;marginTop=10;marginRight=10;marginLeft=10;spacingLeft=5;spacingRight=5;fontStyle=0;startSize=30;points=[];html=1;shadow=1;perimeterSpacing=3;spacingLeft=10;spacingRight=10;allowArrows=1;rotatable=0;whiteSpace=wrap;fontSize=14;horizontal=1;horizontalStack=0;labelBackgroundColor=none;fillColor=#ffcc99;strokeColor=#36393d;" parent="1" vertex="1">
            <mxGeometry x="630" y="1610" width="370" height="110" as="geometry" />
          </mxCell>
        </UserObject>
        <UserObject label="a rdac:C10001 &lt;span style=&quot;color: transparent;&quot;&gt;#&lt;/span&gt;&lt;font color=&quot;#999999&quot;&gt;work&lt;br&gt;&lt;/font&gt;" id="fC0PJWUEyaAXKcJz1B1I-86">
          <mxCell style="points=[];html=1;shadow=1;perimeterSpacing=3;spacingLeft=10;spacingRight=10;allowArrows=1;rotatable=0;whiteSpace=wrap;fontSize=14;rounded=0;labelBackgroundColor=none;" parent="bgf9_nDrxLFxw-tNaPST-402" vertex="1">
            <mxGeometry x="10" y="40" width="350" height="30" as="geometry" />
          </mxCell>
        </UserObject>
        <UserObject label="rdfs:label &quot;Young Romance (DC, 1963 Series)&quot;@en" id="bgf9_nDrxLFxw-tNaPST-405">
          <mxCell style="points=[];html=1;shadow=1;perimeterSpacing=3;spacingLeft=10;spacingRight=10;allowArrows=1;rotatable=0;whiteSpace=wrap;fontSize=14;labelBackgroundColor=none;" parent="bgf9_nDrxLFxw-tNaPST-402" vertex="1">
            <mxGeometry x="10" y="70" width="350" height="30" as="geometry" />
          </mxCell>
        </UserObject>
        <UserObject label="rdaw:P10191&lt;br&gt;&lt;span style=&quot;color: transparent;&quot;&gt;#&lt;/span&gt;&lt;font color=&quot;#999999&quot;&gt;is continued by work&lt;br&gt;&lt;/font&gt;" id="bgf9_nDrxLFxw-tNaPST-415">
          <mxCell style="html=1;edgeStyle=elbowEdgeStyle;rounded=0;orthogonalLoop=1;jettySize=auto;endArrow=block;endFill=1;endSize=5;spacingBottom=20;shadow=1;fontSize=14;labelBackgroundColor=default;fontColor=default;" parent="1" source="bgf9_nDrxLFxw-tNaPST-271" target="bgf9_nDrxLFxw-tNaPST-402" edge="1">
            <mxGeometry relative="1" as="geometry">
              <mxPoint x="440" y="1620" as="sourcePoint" />
              <mxPoint x="554" y="1620" as="targetPoint" />
              <mxPoint as="offset" />
              <Array as="points">
                <mxPoint x="820" y="1550" />
              </Array>
            </mxGeometry>
          </mxCell>
        </UserObject>
        <UserObject label=":young-romance-26-m" id="bgf9_nDrxLFxw-tNaPST-297">
          <mxCell style="swimlane;whiteSpace=wrap;collapsible=1;childLayout=stackLayout;swimlaneFillColor=default;resizeParent=1;resizeLast=0;resizeParentMax=0;marginBottom=10;marginTop=10;marginRight=10;marginLeft=10;spacingLeft=5;spacingRight=5;fontStyle=0;startSize=30;points=[];html=1;shadow=1;perimeterSpacing=3;spacingLeft=10;spacingRight=10;allowArrows=1;rotatable=0;whiteSpace=wrap;fontSize=14;horizontal=1;horizontalStack=0;labelBackgroundColor=none;fillColor=#cdeb8b;strokeColor=#36393d;" parent="1" vertex="1">
            <mxGeometry x="210" y="2440" width="380" height="500" as="geometry" />
          </mxCell>
        </UserObject>
        <UserObject label="a rdac:C10007 &lt;span style=&quot;color: transparent;&quot;&gt;#&lt;/span&gt;&lt;font color=&quot;#999999&quot;&gt;manifestation&lt;/font&gt;" id="bgf9_nDrxLFxw-tNaPST-298">
          <mxCell style="points=[];html=1;shadow=1;perimeterSpacing=3;spacingLeft=10;spacingRight=10;allowArrows=1;rotatable=0;whiteSpace=wrap;fontSize=14;labelBackgroundColor=none;" parent="bgf9_nDrxLFxw-tNaPST-297" vertex="1">
            <mxGeometry x="10" y="40" width="360" height="30" as="geometry" />
          </mxCell>
        </UserObject>
        <UserObject label="rdam:P30088 gn:5110629&lt;br&gt;&lt;span style=&quot;color: transparent;&quot;&gt;#&lt;/span&gt;&lt;font color=&quot;#999999&quot;&gt;has place of publication&lt;/font&gt;" id="bgf9_nDrxLFxw-tNaPST-430">
          <mxCell style="points=[];html=1;shadow=1;perimeterSpacing=3;spacingLeft=10;spacingRight=10;allowArrows=1;rotatable=0;whiteSpace=wrap;fontSize=14;labelBackgroundColor=none;" parent="bgf9_nDrxLFxw-tNaPST-297" vertex="1">
            <mxGeometry x="10" y="70" width="360" height="40" as="geometry" />
          </mxCell>
        </UserObject>
        <UserObject label="rdam:P30011 &quot;1950-10-01T00:00:00&quot;^^xsd:dateTime&lt;br&gt;&lt;span style=&quot;color: transparent;&quot;&gt;#&lt;/span&gt;&lt;font color=&quot;#999999&quot;&gt;has date of publication&lt;/font&gt;" id="fC0PJWUEyaAXKcJz1B1I-110">
          <mxCell style="points=[];html=1;shadow=1;perimeterSpacing=3;spacingLeft=10;spacingRight=10;allowArrows=1;rotatable=0;whiteSpace=wrap;fontSize=14;labelBackgroundColor=none;" parent="bgf9_nDrxLFxw-tNaPST-297" vertex="1">
            <mxGeometry x="10" y="110" width="360" height="40" as="geometry" />
          </mxCell>
        </UserObject>
        <UserObject label="rdam:P30304 rdamat:1025&lt;br&gt;&lt;span style=&quot;color: transparent;&quot;&gt;#&lt;/span&gt;&lt;font color=&quot;#999999&quot;&gt;has material paper&lt;/font&gt;" id="fC0PJWUEyaAXKcJz1B1I-103">
          <mxCell style="points=[];html=1;shadow=1;perimeterSpacing=3;spacingLeft=10;spacingRight=10;allowArrows=1;rotatable=0;whiteSpace=wrap;fontSize=14;labelBackgroundColor=none;" parent="bgf9_nDrxLFxw-tNaPST-297" vertex="1">
            <mxGeometry x="10" y="150" width="360" height="40" as="geometry" />
          </mxCell>
        </UserObject>
        <UserObject label="rdam:P30309 rdatb:1007&lt;br&gt;&lt;span style=&quot;color: transparent;&quot;&gt;#&lt;/span&gt;&lt;font color=&quot;#999999&quot;&gt;has type of binding saddle stitch&lt;/font&gt;" id="fC0PJWUEyaAXKcJz1B1I-104">
          <mxCell style="points=[];html=1;shadow=1;perimeterSpacing=3;spacingLeft=10;spacingRight=10;allowArrows=1;rotatable=0;whiteSpace=wrap;fontSize=14;labelBackgroundColor=none;" parent="bgf9_nDrxLFxw-tNaPST-297" vertex="1">
            <mxGeometry x="10" y="190" width="360" height="40" as="geometry" />
          </mxCell>
        </UserObject>
        <UserObject label="rdam:P30456 rdacc:1003&lt;br&gt;&lt;span style=&quot;color: transparent;&quot;&gt;#&lt;/span&gt;&lt;font color=&quot;#999999&quot;&gt;has colour content polychrome&lt;/font&gt;" id="fC0PJWUEyaAXKcJz1B1I-105">
          <mxCell style="points=[];html=1;shadow=1;perimeterSpacing=3;spacingLeft=10;spacingRight=10;allowArrows=1;rotatable=0;whiteSpace=wrap;fontSize=14;labelBackgroundColor=none;" parent="bgf9_nDrxLFxw-tNaPST-297" vertex="1">
            <mxGeometry x="10" y="230" width="360" height="40" as="geometry" />
          </mxCell>
        </UserObject>
        <UserObject label="rdam:P30169 &quot;standard Golden Age U. S.&quot;@en&lt;br&gt;&lt;span style=&quot;color: transparent;&quot;&gt;#&lt;/span&gt;&lt;font color=&quot;#999999&quot;&gt;has dimensions&lt;/font&gt;" id="fC0PJWUEyaAXKcJz1B1I-111">
          <mxCell style="points=[];html=1;shadow=1;perimeterSpacing=3;spacingLeft=10;spacingRight=10;allowArrows=1;rotatable=0;whiteSpace=wrap;fontSize=14;labelBackgroundColor=none;" parent="bgf9_nDrxLFxw-tNaPST-297" vertex="1">
            <mxGeometry x="10" y="270" width="360" height="40" as="geometry" />
          </mxCell>
        </UserObject>
        <UserObject label="rdam:P30182 &quot;52 pages&quot;@en&lt;br&gt;&lt;span style=&quot;color: transparent;&quot;&gt;#&lt;/span&gt;&lt;font color=&quot;#999999&quot;&gt;has extent&lt;/font&gt;" id="fC0PJWUEyaAXKcJz1B1I-112">
          <mxCell style="points=[];html=1;shadow=1;perimeterSpacing=3;spacingLeft=10;spacingRight=10;allowArrows=1;rotatable=0;whiteSpace=wrap;fontSize=14;labelBackgroundColor=none;" parent="bgf9_nDrxLFxw-tNaPST-297" vertex="1">
            <mxGeometry x="10" y="310" width="360" height="40" as="geometry" />
          </mxCell>
        </UserObject>
        <UserObject label="rdam:P30014 &lt;span style=&quot;color: transparent;&quot;&gt;#&lt;/span&gt;&lt;font color=&quot;#999999&quot;&gt;has numbering within sequence&lt;br&gt;&lt;/font&gt;" id="bgf9_nDrxLFxw-tNaPST-373">
          <mxCell style="swimlane;whiteSpace=wrap;collapsible=1;childLayout=stackLayout;swimlaneFillColor=default;resizeParent=1;resizeLast=0;resizeParentMax=0;marginBottom=10;marginTop=10;marginRight=10;marginLeft=10;spacingLeft=5;spacingRight=5;fontStyle=0;startSize=30;points=[];html=1;shadow=1;perimeterSpacing=3;spacingLeft=10;spacingRight=10;allowArrows=1;rotatable=0;whiteSpace=wrap;fontSize=14;horizontal=1;horizontalStack=0;labelBackgroundColor=none;" parent="bgf9_nDrxLFxw-tNaPST-297" vertex="1">
            <mxGeometry x="10" y="350" width="360" height="110" as="geometry">
              <mxRectangle x="10" y="330" width="250" height="30" as="alternateBounds" />
            </mxGeometry>
          </mxCell>
        </UserObject>
        <UserObject label="&quot;vol. 4, no. 2&quot;" id="fC0PJWUEyaAXKcJz1B1I-107">
          <mxCell style="points=[];html=1;shadow=1;perimeterSpacing=3;spacingLeft=10;spacingRight=10;allowArrows=1;rotatable=0;whiteSpace=wrap;fontSize=14;" parent="bgf9_nDrxLFxw-tNaPST-373" vertex="1">
            <mxGeometry x="10" y="40" width="340" height="30" as="geometry" />
          </mxCell>
        </UserObject>
        <UserObject label="&quot;no. 26&quot;" id="fC0PJWUEyaAXKcJz1B1I-108">
          <mxCell style="points=[];html=1;shadow=1;perimeterSpacing=3;spacingLeft=10;spacingRight=10;allowArrows=1;rotatable=0;whiteSpace=wrap;fontSize=14;" parent="bgf9_nDrxLFxw-tNaPST-373" vertex="1">
            <mxGeometry x="10" y="70" width="340" height="30" as="geometry" />
          </mxCell>
        </UserObject>
        <UserObject label="rdfs:label &quot;Young Romance 26, October 1950&quot;@en" id="bgf9_nDrxLFxw-tNaPST-429">
          <mxCell style="points=[];html=1;shadow=1;perimeterSpacing=3;spacingLeft=10;spacingRight=10;allowArrows=1;rotatable=0;whiteSpace=wrap;fontSize=14;labelBackgroundColor=none;" parent="bgf9_nDrxLFxw-tNaPST-297" vertex="1">
            <mxGeometry x="10" y="460" width="360" height="30" as="geometry" />
          </mxCell>
        </UserObject>
        <UserObject label=":jon-henri" id="bgf9_nDrxLFxw-tNaPST-59">
          <mxCell style="swimlane;whiteSpace=wrap;collapsible=1;childLayout=stackLayout;swimlaneFillColor=default;resizeParent=1;resizeLast=0;resizeParentMax=0;marginBottom=10;marginTop=10;marginRight=10;marginLeft=10;spacingLeft=5;spacingRight=5;fontStyle=0;startSize=30;points=[];html=1;shadow=1;perimeterSpacing=3;spacingLeft=10;spacingRight=10;allowArrows=1;rotatable=0;whiteSpace=wrap;fontSize=14;horizontal=1;horizontalStack=0;rounded=0;labelBackgroundColor=none;fillColor=#f9f7ed;strokeColor=#36393d;" parent="1" vertex="1">
            <mxGeometry x="710" y="3140" width="210" height="120" as="geometry">
              <mxRectangle x="730" y="1340" width="180" height="30" as="alternateBounds" />
            </mxGeometry>
          </mxCell>
        </UserObject>
        <UserObject label="a rdac:C10012 &lt;span style=&quot;color: transparent;&quot;&gt;#&lt;/span&gt;&lt;font color=&quot;#999999&quot;&gt;nomen&lt;/font&gt;" id="bgf9_nDrxLFxw-tNaPST-60">
          <mxCell style="points=[];html=1;shadow=1;perimeterSpacing=3;spacingLeft=10;spacingRight=10;allowArrows=1;rotatable=0;whiteSpace=wrap;fontSize=14;rounded=0;labelBackgroundColor=none;" parent="bgf9_nDrxLFxw-tNaPST-59" vertex="1">
            <mxGeometry x="10" y="40" width="190" height="30" as="geometry" />
          </mxCell>
        </UserObject>
        <UserObject label="rdan:P80068 &quot;Jon Henri&quot;&lt;br&gt;&lt;span style=&quot;color: transparent;&quot;&gt;#&lt;/span&gt;&lt;font color=&quot;#999999&quot;&gt;has nomen string&lt;/font&gt;" id="bgf9_nDrxLFxw-tNaPST-61">
          <mxCell style="points=[];html=1;shadow=1;perimeterSpacing=3;spacingLeft=10;spacingRight=10;allowArrows=1;rotatable=0;whiteSpace=wrap;fontSize=14;rounded=0;labelBackgroundColor=none;" parent="bgf9_nDrxLFxw-tNaPST-59" vertex="1">
            <mxGeometry x="10" y="70" width="190" height="40" as="geometry" />
          </mxCell>
        </UserObject>
        <UserObject label="rdaa:P50428&lt;br&gt;&lt;span style=&quot;color: transparent;&quot;&gt;#&lt;/span&gt;&lt;font color=&quot;#999999&quot;&gt;has alternate identity&lt;/font&gt;" id="fC0PJWUEyaAXKcJz1B1I-49">
          <mxCell style="html=1;edgeStyle=elbowEdgeStyle;rounded=0;orthogonalLoop=1;jettySize=auto;endArrow=block;endFill=1;endSize=5;spacingBottom=20;shadow=1;fontSize=14;elbow=horizontal;" parent="1" source="fC0PJWUEyaAXKcJz1B1I-70" target="bgf9_nDrxLFxw-tNaPST-59" edge="1">
            <mxGeometry x="-0.073" relative="1" as="geometry">
              <mxPoint x="-114.99999999999977" y="3002.9999999999995" as="sourcePoint" />
              <mxPoint x="22" y="3185" as="targetPoint" />
              <Array as="points">
                <mxPoint x="810" y="3320" />
              </Array>
              <mxPoint as="offset" />
            </mxGeometry>
          </mxCell>
        </UserObject>
        <UserObject label="rdaa:P50428&lt;br&gt;&lt;span style=&quot;color: transparent;&quot;&gt;#&lt;/span&gt;&lt;font color=&quot;#999999&quot;&gt;has alternate identity&lt;/font&gt;" id="fC0PJWUEyaAXKcJz1B1I-50">
          <mxCell style="html=1;edgeStyle=elbowEdgeStyle;rounded=0;orthogonalLoop=1;jettySize=auto;endArrow=block;endFill=1;endSize=5;spacingBottom=20;shadow=1;fontSize=14;" parent="1" source="fC0PJWUEyaAXKcJz1B1I-59" target="bgf9_nDrxLFxw-tNaPST-59" edge="1">
            <mxGeometry relative="1" as="geometry">
              <mxPoint x="480" y="3012.9999999999995" as="sourcePoint" />
              <mxPoint x="788" y="3219" as="targetPoint" />
              <Array as="points">
                <mxPoint x="815" y="3090" />
              </Array>
            </mxGeometry>
          </mxCell>
        </UserObject>
        <UserObject label="rdae:P20387&lt;br&gt;&lt;span style=&quot;color: transparent;&quot;&gt;#&lt;/span&gt;&lt;font color=&quot;#999999&quot;&gt;has letterer person&lt;/font&gt;" id="fC0PJWUEyaAXKcJz1B1I-52">
          <mxCell style="html=1;edgeStyle=elbowEdgeStyle;rounded=0;orthogonalLoop=1;jettySize=auto;endArrow=block;endFill=1;endSize=5;spacingBottom=20;shadow=1;fontSize=14;elbow=vertical;" parent="1" source="bgf9_nDrxLFxw-tNaPST-289" target="nKvTLelhxwqPHLfkCT0D-1" edge="1">
            <mxGeometry relative="1" as="geometry">
              <mxPoint x="917" y="1940" as="sourcePoint" />
              <mxPoint x="1031" y="1940" as="targetPoint" />
              <Array as="points">
                <mxPoint x="1330" y="2570" />
              </Array>
            </mxGeometry>
          </mxCell>
        </UserObject>
        <UserObject label=":joe-simon" id="fC0PJWUEyaAXKcJz1B1I-59">
          <mxCell style="swimlane;whiteSpace=wrap;collapsible=1;childLayout=stackLayout;swimlaneFillColor=default;resizeParent=1;resizeLast=0;resizeParentMax=0;marginBottom=10;marginTop=10;marginRight=10;marginLeft=10;spacingLeft=5;spacingRight=5;fontStyle=0;startSize=30;points=[];html=1;shadow=1;perimeterSpacing=3;spacingLeft=10;spacingRight=10;allowArrows=1;rotatable=0;whiteSpace=wrap;fontSize=14;horizontal=1;horizontalStack=0;labelBackgroundColor=none;rounded=0;fillColor=#ffcccc;strokeColor=#36393d;" parent="1" vertex="1">
            <mxGeometry x="1047" y="2940" width="370" height="430" as="geometry" />
          </mxCell>
        </UserObject>
        <UserObject label="a rdac:C10004 &lt;span style=&quot;color: transparent;&quot;&gt;#&lt;/span&gt;&lt;font color=&quot;#999999&quot;&gt;person&lt;/font&gt;" id="fC0PJWUEyaAXKcJz1B1I-60">
          <mxCell style="points=[];html=1;shadow=1;perimeterSpacing=3;spacingLeft=10;spacingRight=10;allowArrows=1;rotatable=0;whiteSpace=wrap;fontSize=14;labelBackgroundColor=none;rounded=0;" parent="fC0PJWUEyaAXKcJz1B1I-59" vertex="1">
            <mxGeometry x="10" y="40" width="350" height="30" as="geometry" />
          </mxCell>
        </UserObject>
        <UserObject label="rdaa:P50119 gn:5134086&lt;br&gt;&lt;span style=&quot;color: transparent;&quot;&gt;#&lt;/span&gt;&lt;font color=&quot;#999999&quot;&gt;has place of birth&lt;/font&gt;" id="fC0PJWUEyaAXKcJz1B1I-61">
          <mxCell style="points=[];html=1;shadow=1;perimeterSpacing=3;spacingLeft=10;spacingRight=10;allowArrows=1;rotatable=0;whiteSpace=wrap;fontSize=14;labelBackgroundColor=none;rounded=0;" parent="fC0PJWUEyaAXKcJz1B1I-59" vertex="1">
            <mxGeometry x="10" y="70" width="350" height="40" as="geometry" />
          </mxCell>
        </UserObject>
        <UserObject label="rdaa:P50118 gn:5128581&lt;br&gt;&lt;span style=&quot;color: transparent;&quot;&gt;#&lt;/span&gt;&lt;font color=&quot;#999999&quot;&gt;has place of death&lt;/font&gt;" id="fC0PJWUEyaAXKcJz1B1I-62">
          <mxCell style="points=[];html=1;shadow=1;perimeterSpacing=3;spacingLeft=10;spacingRight=10;allowArrows=1;rotatable=0;whiteSpace=wrap;fontSize=14;labelBackgroundColor=none;rounded=0;" parent="fC0PJWUEyaAXKcJz1B1I-59" vertex="1">
            <mxGeometry x="10" y="110" width="350" height="40" as="geometry" />
          </mxCell>
        </UserObject>
        <UserObject label="rdaa:P50121 &quot;1913-10-11T00:00:00&quot;^^xsd:dateTime&lt;br&gt;&lt;span style=&quot;color: transparent;&quot;&gt;#&lt;/span&gt;&lt;font color=&quot;#999999&quot;&gt;has date of birth&lt;/font&gt;" id="fC0PJWUEyaAXKcJz1B1I-63">
          <mxCell style="points=[];html=1;shadow=1;perimeterSpacing=3;spacingLeft=10;spacingRight=10;allowArrows=1;rotatable=0;whiteSpace=wrap;fontSize=14;labelBackgroundColor=none;rounded=0;" parent="fC0PJWUEyaAXKcJz1B1I-59" vertex="1">
            <mxGeometry x="10" y="150" width="350" height="40" as="geometry" />
          </mxCell>
        </UserObject>
        <UserObject label="rdaa:P50120 &quot;2011-12-14T00:00:00&quot;^^xsd:dateTime&lt;br&gt;&lt;span style=&quot;color: transparent;&quot;&gt;#&lt;/span&gt;&lt;font color=&quot;#999999&quot;&gt;has date of death&lt;/font&gt;" id="fC0PJWUEyaAXKcJz1B1I-64">
          <mxCell style="points=[];html=1;shadow=1;perimeterSpacing=3;spacingLeft=10;spacingRight=10;allowArrows=1;rotatable=0;whiteSpace=wrap;fontSize=14;labelBackgroundColor=none;rounded=0;" parent="fC0PJWUEyaAXKcJz1B1I-59" vertex="1">
            <mxGeometry x="10" y="190" width="350" height="40" as="geometry" />
          </mxCell>
        </UserObject>
        <UserObject label="rdaa:P50117 &quot;Joe Simon&quot;&lt;br&gt;&lt;span style=&quot;color: transparent;&quot;&gt;#&lt;/span&gt;&lt;font color=&quot;#999999&quot;&gt;has preferred name&lt;/font&gt;" id="fC0PJWUEyaAXKcJz1B1I-65">
          <mxCell style="points=[];html=1;shadow=1;perimeterSpacing=3;spacingLeft=10;spacingRight=10;allowArrows=1;rotatable=0;whiteSpace=wrap;fontSize=14;labelBackgroundColor=none;rounded=0;" parent="fC0PJWUEyaAXKcJz1B1I-59" vertex="1">
            <mxGeometry x="10" y="230" width="350" height="40" as="geometry" />
          </mxCell>
        </UserObject>
        <UserObject label="rdaa:P50103 &quot;Hymie Simon&quot;&lt;br&gt;&lt;span style=&quot;color: transparent;&quot;&gt;#&lt;/span&gt;&lt;font color=&quot;#999999&quot;&gt;has variant name&lt;/font&gt;" id="fC0PJWUEyaAXKcJz1B1I-66">
          <mxCell style="points=[];html=1;shadow=1;perimeterSpacing=3;spacingLeft=10;spacingRight=10;allowArrows=1;rotatable=0;whiteSpace=wrap;fontSize=14;labelBackgroundColor=none;rounded=0;" parent="fC0PJWUEyaAXKcJz1B1I-59" vertex="1">
            <mxGeometry x="10" y="270" width="350" height="40" as="geometry" />
          </mxCell>
        </UserObject>
        <UserObject label="rdaa:P50292 &quot;Joe&quot;&lt;br&gt;&lt;span style=&quot;color: transparent;&quot;&gt;#&lt;/span&gt;&lt;font color=&quot;#999999&quot;&gt;has given name&lt;/font&gt;" id="fC0PJWUEyaAXKcJz1B1I-67">
          <mxCell style="points=[];html=1;shadow=1;perimeterSpacing=3;spacingLeft=10;spacingRight=10;allowArrows=1;rotatable=0;whiteSpace=wrap;fontSize=14;labelBackgroundColor=none;rounded=0;" parent="fC0PJWUEyaAXKcJz1B1I-59" vertex="1">
            <mxGeometry x="10" y="310" width="350" height="40" as="geometry" />
          </mxCell>
        </UserObject>
        <UserObject label="rdaa:P50291 &quot;Simon&quot;&lt;br&gt;&lt;span style=&quot;color: transparent;&quot;&gt;#&lt;/span&gt;&lt;font color=&quot;#999999&quot;&gt;has surname&lt;/font&gt;" id="fC0PJWUEyaAXKcJz1B1I-68">
          <mxCell style="points=[];html=1;shadow=1;perimeterSpacing=3;spacingLeft=10;spacingRight=10;allowArrows=1;rotatable=0;whiteSpace=wrap;fontSize=14;labelBackgroundColor=none;rounded=0;" parent="fC0PJWUEyaAXKcJz1B1I-59" vertex="1">
            <mxGeometry x="10" y="350" width="350" height="40" as="geometry" />
          </mxCell>
        </UserObject>
        <UserObject label="rdfs:label &quot;Joe Simon&quot;" id="fC0PJWUEyaAXKcJz1B1I-69">
          <mxCell style="points=[];html=1;shadow=1;perimeterSpacing=3;spacingLeft=10;spacingRight=10;allowArrows=1;rotatable=0;whiteSpace=wrap;fontSize=14;labelBackgroundColor=none;rounded=0;" parent="fC0PJWUEyaAXKcJz1B1I-59" vertex="1">
            <mxGeometry x="10" y="390" width="350" height="30" as="geometry" />
          </mxCell>
        </UserObject>
        <UserObject label=":jack-kirby" id="fC0PJWUEyaAXKcJz1B1I-70">
          <mxCell style="swimlane;whiteSpace=wrap;collapsible=1;childLayout=stackLayout;swimlaneFillColor=default;resizeParent=1;resizeLast=0;resizeParentMax=0;marginBottom=10;marginTop=10;marginRight=10;marginLeft=10;spacingLeft=5;spacingRight=5;fontStyle=0;startSize=30;points=[];html=1;shadow=1;perimeterSpacing=3;spacingLeft=10;spacingRight=10;allowArrows=1;rotatable=0;whiteSpace=wrap;fontSize=14;horizontal=1;horizontalStack=0;labelBackgroundColor=none;rounded=0;fillColor=#ffcccc;strokeColor=#36393d;" parent="1" vertex="1">
            <mxGeometry x="210" y="3050" width="380" height="430" as="geometry" />
          </mxCell>
        </UserObject>
        <UserObject label="a rdac:C10004 &lt;span style=&quot;color: transparent;&quot;&gt;#&lt;/span&gt;&lt;font color=&quot;#999999&quot;&gt;person&lt;/font&gt;" id="fC0PJWUEyaAXKcJz1B1I-71">
          <mxCell style="points=[];html=1;shadow=1;perimeterSpacing=3;spacingLeft=10;spacingRight=10;allowArrows=1;rotatable=0;whiteSpace=wrap;fontSize=14;labelBackgroundColor=none;rounded=0;" parent="fC0PJWUEyaAXKcJz1B1I-70" vertex="1">
            <mxGeometry x="10" y="40" width="360" height="30" as="geometry" />
          </mxCell>
        </UserObject>
        <UserObject label="rdaa:P50119 gn:5128581&lt;br&gt;&lt;span style=&quot;color: transparent;&quot;&gt;#&lt;/span&gt;&lt;font color=&quot;#999999&quot;&gt;has place of birth&lt;/font&gt;" id="fC0PJWUEyaAXKcJz1B1I-72">
          <mxCell style="points=[];html=1;shadow=1;perimeterSpacing=3;spacingLeft=10;spacingRight=10;allowArrows=1;rotatable=0;whiteSpace=wrap;fontSize=14;labelBackgroundColor=none;rounded=0;" parent="fC0PJWUEyaAXKcJz1B1I-70" vertex="1">
            <mxGeometry x="10" y="70" width="360" height="40" as="geometry" />
          </mxCell>
        </UserObject>
        <UserObject label="rdaa:P50118 gn:5402405&lt;br&gt;&lt;span style=&quot;color: transparent;&quot;&gt;#&lt;/span&gt;&lt;font color=&quot;#999999&quot;&gt;has place of death&lt;/font&gt;" id="fC0PJWUEyaAXKcJz1B1I-73">
          <mxCell style="points=[];html=1;shadow=1;perimeterSpacing=3;spacingLeft=10;spacingRight=10;allowArrows=1;rotatable=0;whiteSpace=wrap;fontSize=14;labelBackgroundColor=none;rounded=0;" parent="fC0PJWUEyaAXKcJz1B1I-70" vertex="1">
            <mxGeometry x="10" y="110" width="360" height="40" as="geometry" />
          </mxCell>
        </UserObject>
        <UserObject label="rdaa:P50121 &quot;1917-08-28T00:00:00&quot;^^xsd:dateTime&lt;br&gt;&lt;span style=&quot;color: transparent;&quot;&gt;#&lt;/span&gt;&lt;font color=&quot;#999999&quot;&gt;has date of birth&lt;/font&gt;" id="fC0PJWUEyaAXKcJz1B1I-74">
          <mxCell style="points=[];html=1;shadow=1;perimeterSpacing=3;spacingLeft=10;spacingRight=10;allowArrows=1;rotatable=0;whiteSpace=wrap;fontSize=14;labelBackgroundColor=none;rounded=0;" parent="fC0PJWUEyaAXKcJz1B1I-70" vertex="1">
            <mxGeometry x="10" y="150" width="360" height="40" as="geometry" />
          </mxCell>
        </UserObject>
        <UserObject label="rdaa:P50120 &quot;1994-02-06T00:00:00&quot;^^xsd:dateTime&lt;br&gt;&lt;span style=&quot;color: transparent;&quot;&gt;#&lt;/span&gt;&lt;font color=&quot;#999999&quot;&gt;has date of death&lt;/font&gt;" id="fC0PJWUEyaAXKcJz1B1I-75">
          <mxCell style="points=[];html=1;shadow=1;perimeterSpacing=3;spacingLeft=10;spacingRight=10;allowArrows=1;rotatable=0;whiteSpace=wrap;fontSize=14;labelBackgroundColor=none;rounded=0;" parent="fC0PJWUEyaAXKcJz1B1I-70" vertex="1">
            <mxGeometry x="10" y="190" width="360" height="40" as="geometry" />
          </mxCell>
        </UserObject>
        <UserObject label="rdaa:P50117 &quot;Jack Kirby&quot;&lt;br&gt;&lt;span style=&quot;color: transparent;&quot;&gt;#&lt;/span&gt;&lt;font color=&quot;#999999&quot;&gt;has preferred name&lt;/font&gt;" id="fC0PJWUEyaAXKcJz1B1I-76">
          <mxCell style="points=[];html=1;shadow=1;perimeterSpacing=3;spacingLeft=10;spacingRight=10;allowArrows=1;rotatable=0;whiteSpace=wrap;fontSize=14;labelBackgroundColor=none;rounded=0;" parent="fC0PJWUEyaAXKcJz1B1I-70" vertex="1">
            <mxGeometry x="10" y="230" width="360" height="40" as="geometry" />
          </mxCell>
        </UserObject>
        <UserObject label="rdaa:P50103 &quot;Jacob Kurtzberg&quot;&lt;br&gt;&lt;span style=&quot;color: transparent;&quot;&gt;#&lt;/span&gt;&lt;font color=&quot;#999999&quot;&gt;has variant name&lt;/font&gt;" id="fC0PJWUEyaAXKcJz1B1I-77">
          <mxCell style="points=[];html=1;shadow=1;perimeterSpacing=3;spacingLeft=10;spacingRight=10;allowArrows=1;rotatable=0;whiteSpace=wrap;fontSize=14;labelBackgroundColor=none;rounded=0;" parent="fC0PJWUEyaAXKcJz1B1I-70" vertex="1">
            <mxGeometry x="10" y="270" width="360" height="40" as="geometry" />
          </mxCell>
        </UserObject>
        <UserObject label="rdaa:P50292 &quot;Jack&quot;&lt;br&gt;&lt;span style=&quot;color: transparent;&quot;&gt;#&lt;/span&gt;&lt;font color=&quot;#999999&quot;&gt;has given name&lt;/font&gt;" id="fC0PJWUEyaAXKcJz1B1I-78">
          <mxCell style="points=[];html=1;shadow=1;perimeterSpacing=3;spacingLeft=10;spacingRight=10;allowArrows=1;rotatable=0;whiteSpace=wrap;fontSize=14;labelBackgroundColor=none;rounded=0;" parent="fC0PJWUEyaAXKcJz1B1I-70" vertex="1">
            <mxGeometry x="10" y="310" width="360" height="40" as="geometry" />
          </mxCell>
        </UserObject>
        <UserObject label="rdaa:P50291 &quot;Kirby&quot;&lt;br&gt;&lt;span style=&quot;color: transparent;&quot;&gt;#&lt;/span&gt;&lt;font color=&quot;#999999&quot;&gt;has surname&lt;/font&gt;" id="fC0PJWUEyaAXKcJz1B1I-79">
          <mxCell style="points=[];html=1;shadow=1;perimeterSpacing=3;spacingLeft=10;spacingRight=10;allowArrows=1;rotatable=0;whiteSpace=wrap;fontSize=14;labelBackgroundColor=none;rounded=0;" parent="fC0PJWUEyaAXKcJz1B1I-70" vertex="1">
            <mxGeometry x="10" y="350" width="360" height="40" as="geometry" />
          </mxCell>
        </UserObject>
        <UserObject label="rdfs:label &quot;Jack Kirby&quot;" id="fC0PJWUEyaAXKcJz1B1I-80">
          <mxCell style="points=[];html=1;shadow=1;perimeterSpacing=3;spacingLeft=10;spacingRight=10;allowArrows=1;rotatable=0;whiteSpace=wrap;fontSize=14;labelBackgroundColor=none;rounded=0;" parent="fC0PJWUEyaAXKcJz1B1I-70" vertex="1">
            <mxGeometry x="10" y="390" width="360" height="30" as="geometry" />
          </mxCell>
        </UserObject>
        <UserObject label="&lt;span style=&quot;color: transparent;&quot;&gt;rdaw:P10451&lt;br&gt;#has artist person&lt;br&gt;&lt;/span&gt;" id="fC0PJWUEyaAXKcJz1B1I-83">
          <mxCell style="html=1;edgeStyle=elbowEdgeStyle;rounded=0;orthogonalLoop=1;jettySize=auto;endArrow=block;endFill=1;endSize=5;spacingBottom=20;shadow=1;fontSize=14;labelBackgroundColor=none;" parent="1" source="bgf9_nDrxLFxw-tNaPST-231" target="fC0PJWUEyaAXKcJz1B1I-70" edge="1">
            <mxGeometry relative="1" as="geometry">
              <mxPoint x="1660" y="1580" as="sourcePoint" />
              <mxPoint x="1156" y="2880" as="targetPoint" />
              <Array as="points">
                <mxPoint x="1580" y="3440" />
              </Array>
            </mxGeometry>
          </mxCell>
        </UserObject>
        <UserObject label=":young-romance-26-e" id="fC0PJWUEyaAXKcJz1B1I-91">
          <mxCell style="swimlane;whiteSpace=wrap;collapsible=1;childLayout=stackLayout;swimlaneFillColor=default;resizeParent=1;resizeLast=0;resizeParentMax=0;marginBottom=10;marginTop=10;marginRight=10;marginLeft=10;spacingLeft=5;spacingRight=5;fontStyle=0;startSize=30;points=[];html=1;shadow=1;perimeterSpacing=3;spacingLeft=10;spacingRight=10;allowArrows=1;rotatable=0;whiteSpace=wrap;fontSize=14;horizontal=1;horizontalStack=0;rounded=0;labelBackgroundColor=none;fillColor=#FFE599;strokeColor=#36393d;" parent="1" vertex="1">
            <mxGeometry x="240" y="2090" width="320" height="220" as="geometry" />
          </mxCell>
        </UserObject>
        <UserObject label="a rdac:C10006 &lt;span style=&quot;color: transparent;&quot;&gt;#&lt;/span&gt;&lt;font color=&quot;#999999&quot;&gt;expression&lt;br&gt;&lt;/font&gt;" id="fC0PJWUEyaAXKcJz1B1I-92">
          <mxCell style="points=[];html=1;shadow=1;perimeterSpacing=3;spacingLeft=10;spacingRight=10;allowArrows=1;rotatable=0;whiteSpace=wrap;fontSize=14;rounded=0;labelBackgroundColor=none;" parent="fC0PJWUEyaAXKcJz1B1I-91" vertex="1">
            <mxGeometry x="10" y="40" width="300" height="30" as="geometry" />
          </mxCell>
        </UserObject>
        <UserObject label="rdae:P20001 &lt;span style=&quot;color: transparent;&quot;&gt;#&lt;/span&gt;&lt;font color=&quot;#999999&quot;&gt;has content type&lt;/font&gt;" id="bgf9_nDrxLFxw-tNaPST-306">
          <mxCell style="swimlane;whiteSpace=wrap;collapsible=1;childLayout=stackLayout;swimlaneFillColor=default;resizeParent=1;resizeLast=0;resizeParentMax=0;marginBottom=10;marginTop=10;marginRight=10;marginLeft=10;spacingLeft=5;spacingRight=5;fontStyle=0;startSize=30;points=[];html=1;shadow=1;perimeterSpacing=3;spacingLeft=10;spacingRight=10;allowArrows=1;rotatable=0;whiteSpace=wrap;fontSize=14;horizontal=1;horizontalStack=0;labelBackgroundColor=none;" parent="fC0PJWUEyaAXKcJz1B1I-91" vertex="1">
            <mxGeometry x="10" y="70" width="300" height="110" as="geometry">
              <mxRectangle x="10" y="70" width="270" height="30" as="alternateBounds" />
            </mxGeometry>
          </mxCell>
        </UserObject>
        <UserObject label="rdaco:1020 &lt;span style=&quot;color: transparent;&quot;&gt;#&lt;/span&gt;&lt;font color=&quot;#999999&quot;&gt;text&lt;br&gt;&lt;/font&gt;" id="bgf9_nDrxLFxw-tNaPST-307">
          <mxCell style="points=[];html=1;shadow=1;perimeterSpacing=3;spacingLeft=10;spacingRight=10;allowArrows=1;rotatable=0;whiteSpace=wrap;fontSize=14;labelBackgroundColor=none;" parent="bgf9_nDrxLFxw-tNaPST-306" vertex="1">
            <mxGeometry x="10" y="40" width="280" height="30" as="geometry" />
          </mxCell>
        </UserObject>
        <UserObject label="rdaco:1014 &lt;span style=&quot;color: transparent;&quot;&gt;#&lt;/span&gt;&lt;font color=&quot;#999999&quot;&gt;still image&lt;br&gt;&lt;/font&gt;" id="bgf9_nDrxLFxw-tNaPST-308">
          <mxCell style="points=[];html=1;shadow=1;perimeterSpacing=3;spacingLeft=10;spacingRight=10;allowArrows=1;rotatable=0;whiteSpace=wrap;fontSize=14;labelBackgroundColor=none;" parent="bgf9_nDrxLFxw-tNaPST-306" vertex="1">
            <mxGeometry x="10" y="70" width="280" height="30" as="geometry" />
          </mxCell>
        </UserObject>
        <UserObject label="rdfs:label &quot;Young Romance 26, Edited&quot;@en" id="fC0PJWUEyaAXKcJz1B1I-94">
          <mxCell style="points=[];html=1;shadow=1;perimeterSpacing=3;spacingLeft=10;spacingRight=10;allowArrows=1;rotatable=0;whiteSpace=wrap;fontSize=14;rounded=0;labelBackgroundColor=none;" parent="fC0PJWUEyaAXKcJz1B1I-91" vertex="1">
            <mxGeometry x="10" y="180" width="300" height="30" as="geometry" />
          </mxCell>
        </UserObject>
        <UserObject label="rdae:P20338&lt;br&gt;&lt;span style=&quot;&quot;&gt;#&lt;/span&gt;&lt;font&gt;has editor person&lt;/font&gt;" id="fC0PJWUEyaAXKcJz1B1I-98">
          <mxCell style="html=1;edgeStyle=elbowEdgeStyle;rounded=0;orthogonalLoop=1;jettySize=auto;endArrow=block;endFill=1;endSize=5;spacingBottom=20;shadow=1;fontSize=14;fontColor=none;noLabel=1;labelBackgroundColor=none;" parent="1" source="fC0PJWUEyaAXKcJz1B1I-91" target="fC0PJWUEyaAXKcJz1B1I-59" edge="1">
            <mxGeometry relative="1" as="geometry">
              <mxPoint x="213" y="2100" as="sourcePoint" />
              <mxPoint x="1233" y="3430" as="targetPoint" />
              <Array as="points">
                <mxPoint x="80" y="3010" />
              </Array>
            </mxGeometry>
          </mxCell>
        </UserObject>
        <UserObject label="rdae:P20338&lt;br&gt;&lt;span style=&quot;color: transparent;&quot;&gt;#&lt;/span&gt;&lt;font color=&quot;#999999&quot;&gt;has editor person&lt;/font&gt;" id="fC0PJWUEyaAXKcJz1B1I-99">
          <mxCell style="html=1;edgeStyle=elbowEdgeStyle;rounded=0;orthogonalLoop=1;jettySize=auto;endArrow=block;endFill=1;endSize=5;spacingBottom=20;shadow=1;fontSize=14;" parent="1" source="fC0PJWUEyaAXKcJz1B1I-91" target="fC0PJWUEyaAXKcJz1B1I-70" edge="1">
            <mxGeometry relative="1" as="geometry">
              <mxPoint x="360" y="1470" as="sourcePoint" />
              <mxPoint x="360" y="2184" as="targetPoint" />
              <Array as="points">
                <mxPoint x="80" y="2740" />
              </Array>
            </mxGeometry>
          </mxCell>
        </UserObject>
        <UserObject label="rdam:P30420&lt;br&gt;&lt;span style=&quot;color: transparent;&quot;&gt;#&lt;/span&gt;&lt;font color=&quot;#999999&quot;&gt;has publisher corporate body&lt;/font&gt;" id="fC0PJWUEyaAXKcJz1B1I-106">
          <mxCell style="html=1;edgeStyle=elbowEdgeStyle;rounded=0;orthogonalLoop=1;jettySize=auto;endArrow=block;endFill=1;endSize=5;spacingBottom=20;shadow=1;fontSize=14;" parent="1" source="bgf9_nDrxLFxw-tNaPST-297" target="bgf9_nDrxLFxw-tNaPST-239" edge="1">
            <mxGeometry x="0.0379" y="10" relative="1" as="geometry">
              <mxPoint x="1200" y="1840" as="sourcePoint" />
              <mxPoint x="1133" y="2667" as="targetPoint" />
              <Array as="points">
                <mxPoint x="810" y="2510" />
              </Array>
              <mxPoint as="offset" />
            </mxGeometry>
          </mxCell>
        </UserObject>
        <UserObject label="rdaw:P10141&lt;br&gt;&lt;span style=&quot;color: transparent;&quot;&gt;#&lt;/span&gt;&lt;font color=&quot;#999999&quot;&gt;has issue&lt;/font&gt;" id="fC0PJWUEyaAXKcJz1B1I-114">
          <mxCell style="html=1;edgeStyle=elbowEdgeStyle;rounded=0;orthogonalLoop=1;jettySize=auto;endArrow=block;endFill=1;endSize=5;spacingBottom=20;shadow=1;fontSize=14;labelBackgroundColor=default;fontColor=default;" parent="1" source="bgf9_nDrxLFxw-tNaPST-271" target="bgf9_nDrxLFxw-tNaPST-268" edge="1">
            <mxGeometry relative="1" as="geometry">
              <mxPoint x="360.11" y="1699" as="sourcePoint" />
              <mxPoint x="360.11" y="1500" as="targetPoint" />
              <mxPoint as="offset" />
            </mxGeometry>
          </mxCell>
        </UserObject>
        <UserObject label="&amp;lt;&amp;gt;" id="fC0PJWUEyaAXKcJz1B1I-121">
          <mxCell style="swimlane;whiteSpace=wrap;collapsible=1;childLayout=stackLayout;swimlaneFillColor=default;resizeParent=1;resizeLast=0;resizeParentMax=0;marginBottom=10;marginTop=10;marginRight=10;marginLeft=10;spacingLeft=5;spacingRight=5;fontStyle=0;startSize=30;points=[];html=1;shadow=1;perimeterSpacing=3;spacingLeft=10;spacingRight=10;allowArrows=1;rotatable=0;whiteSpace=wrap;fontSize=14;horizontal=1;horizontalStack=0;" parent="1" vertex="1">
            <mxGeometry x="642" y="1210" width="370" height="230" as="geometry" />
          </mxCell>
        </UserObject>
        <UserObject label="dc:title&quot;Describing Periodicals with RDA&quot;@en" id="fC0PJWUEyaAXKcJz1B1I-122">
          <mxCell style="points=[];html=1;shadow=1;perimeterSpacing=3;spacingLeft=10;spacingRight=10;allowArrows=1;rotatable=0;whiteSpace=wrap;fontSize=14;" parent="fC0PJWUEyaAXKcJz1B1I-121" vertex="1">
            <mxGeometry x="10" y="40" width="350" height="30" as="geometry" />
          </mxCell>
        </UserObject>
        <UserObject label="dc:description &quot;A test of the descriptive capabilities of the RDA ecosystem, taking as a case study the perusal of a periodical, the most complex publication to model within LRM.&quot;@en" id="fC0PJWUEyaAXKcJz1B1I-123">
          <mxCell style="points=[];html=1;shadow=1;perimeterSpacing=3;spacingLeft=10;spacingRight=10;allowArrows=1;rotatable=0;whiteSpace=wrap;fontSize=14;" parent="fC0PJWUEyaAXKcJz1B1I-121" vertex="1">
            <mxGeometry x="10" y="70" width="350" height="90" as="geometry" />
          </mxCell>
        </UserObject>
        <UserObject label="dc:creator &quot;Francesca Massarenti&quot;" id="fC0PJWUEyaAXKcJz1B1I-124">
          <mxCell style="points=[];html=1;shadow=1;perimeterSpacing=3;spacingLeft=10;spacingRight=10;allowArrows=1;rotatable=0;whiteSpace=wrap;fontSize=14;" parent="fC0PJWUEyaAXKcJz1B1I-121" vertex="1">
            <mxGeometry x="10" y="160" width="350" height="30" as="geometry" />
          </mxCell>
        </UserObject>
        <UserObject label="dc:date &quot;2025-01-12&quot;" id="fC0PJWUEyaAXKcJz1B1I-125">
          <mxCell style="points=[];html=1;shadow=1;perimeterSpacing=3;spacingLeft=10;spacingRight=10;allowArrows=1;rotatable=0;whiteSpace=wrap;fontSize=14;" parent="fC0PJWUEyaAXKcJz1B1I-121" vertex="1">
            <mxGeometry x="10" y="190" width="350" height="30" as="geometry" />
          </mxCell>
        </UserObject>
        <UserObject label="rdaw:P10451&lt;br&gt;&lt;span style=&quot;color: transparent;&quot;&gt;#&lt;/span&gt;&lt;font color=&quot;#999999&quot;&gt;has artist person&lt;br&gt;&lt;/font&gt;" id="fC0PJWUEyaAXKcJz1B1I-82">
          <mxCell style="html=1;edgeStyle=elbowEdgeStyle;rounded=0;orthogonalLoop=1;jettySize=auto;endArrow=block;endFill=1;endSize=5;spacingBottom=20;shadow=1;fontSize=14;" parent="1" source="bgf9_nDrxLFxw-tNaPST-231" target="fC0PJWUEyaAXKcJz1B1I-59" edge="1">
            <mxGeometry relative="1" as="geometry">
              <mxPoint x="1630" y="1310" as="sourcePoint" />
              <mxPoint x="1624" y="1610" as="targetPoint" />
              <Array as="points">
                <mxPoint x="1580" y="3155" />
              </Array>
            </mxGeometry>
          </mxCell>
        </UserObject>
      </root>
    </mxGraphModel>
  </diagram>
</mxfile>
